# xmcd
#
# Track frame offsets:
#	150
#	17250
#	38137
#	67248
#	89183
#	113923
#	134282
#	152116
#	174378
#	202766
#	224695
#	243331
#	268944
#	301085
#	311382
#
# Disc length: 4540 seconds
#
# Revision: 1
# Processed by: cddbd v1.5.2PL0 Copyright (c) Steve Scherf et al.
# Submitted via: audiograbber 1.83.01
#
DISCID=d111ba0f
DTITLE=Robert Cray - The Redux Club, Dallas Tx Jan 21st 1987
DYEAR=2015
DGENRE=Blues
TTITLE0=I Guess I Showed Her
TTITLE1=Still Around
TTITLE2=T-Bone Shuffle
TTITLE3=Right Next Door (Beacause of Me)
TTITLE4=Smoking Gun
TTITLE5=More Than I Can Stand
TTITLE6=Bad Influence
TTITLE7=Playing In The Dirt
TTITLE8=Porch Light
TTITLE9=Foul Play
TTITLE10=Phone Booth
TTITLE11=False Accusations
TTITLE12=Cray/SRV Jam
TTITLE13=band intro
TTITLE14=encore: New Blood
EXTD=w. Special Guest Stevie Ray Vaughan
EXTT0=
EXTT1=
EXTT2=
EXTT3=
EXTT4=
EXTT5=
EXTT6=
EXTT7=
EXTT8=
EXTT9=
EXTT10=
EXTT11=with Stevie Ray Vaughan
EXTT12=with Stevie Ray Vaughan
EXTT13=
EXTT14=with Stevie Ray Vaughan
PLAYORDER=
